<?xml version="1.0" encoding="UTF-8"?>
<!-- Generated by Pixelmator Pro 3.7.1 -->
<svg width="800" height="800" viewBox="0 0 800 800" xmlns="http://www.w3.org/2000/svg">
    <path id="Path" fill="#8ebab7" stroke="none" d="M 333.333344 433.333344 C 314.923981 433.333344 300 448.256653 300 466.666656 C 300 485.076691 314.923981 500 333.333344 500 L 466.666656 500 C 485.076691 500 500 485.076691 500 466.666656 C 500 448.256653 485.076691 433.333344 466.666656 433.333344 L 333.333344 433.333344 Z"/>
    <path id="path1" fill="#8ebab7" stroke="none" d="M 566.666687 466.666656 C 566.666687 448.256653 581.590027 433.333344 600 433.333344 C 618.409973 433.333344 633.333313 448.256653 633.333313 466.666656 C 633.333313 485.076691 618.409973 500 600 500 C 581.590027 500 566.666687 485.076691 566.666687 466.666656 Z"/>
    <path id="path2" fill="#8ebab7" stroke="none" d="M 200 433.333344 C 181.590668 433.333344 166.666672 448.256653 166.666672 466.666656 C 166.666672 485.076691 181.590668 500 200 500 C 218.409668 500 233.333328 485.076691 233.333328 466.666656 C 233.333328 448.256653 218.409668 433.333344 200 433.333344 Z"/>
    <path id="path3" fill="#8ebab7" stroke="none" d="M 166.666672 333.333344 C 166.666672 314.923981 181.590668 300 200 300 C 218.409668 300 233.333328 314.923981 233.333328 333.333344 C 233.333328 351.743347 218.409668 366.666656 200 366.666656 C 181.590668 366.666656 166.666672 351.743347 166.666672 333.333344 Z"/>
    <path id="path4" fill="#8ebab7" stroke="none" d="M 333.333344 300 C 314.923676 300 300 314.923981 300 333.333344 C 300 351.743347 314.923676 366.666656 333.333344 366.666656 C 351.743347 366.666656 366.666656 351.743347 366.666656 333.333344 C 366.666656 314.923981 351.743347 300 333.333344 300 Z"/>
    <path id="path5" fill="#8ebab7" stroke="none" d="M 433.333344 333.333344 C 433.333344 314.923981 448.256653 300 466.666656 300 C 485.076691 300 500 314.923981 500 333.333344 C 500 351.743347 485.076691 366.666656 466.666656 366.666656 C 448.256653 366.666656 433.333344 351.743347 433.333344 333.333344 Z"/>
    <path id="path6" fill="#8ebab7" stroke="none" d="M 600 300 C 581.590027 300 566.666687 314.923981 566.666687 333.333344 C 566.666687 351.743347 581.590027 366.666656 600 366.666656 C 618.409973 366.666656 633.333313 351.743347 633.333313 333.333344 C 633.333313 314.923981 618.409973 300 600 300 Z"/>
    <path id="path7" fill="#8ebab7" fill-rule="evenodd" stroke="none" d="M 666.666687 166.666687 C 721.896667 166.666687 766.666687 211.438354 766.666687 266.666687 L 766.666687 533.333374 C 766.666687 588.563354 721.896667 633.333313 666.666687 633.333313 L 133.333328 633.333313 C 78.104996 633.333313 33.333332 588.563354 33.333332 533.333374 L 33.333332 266.666687 C 33.333332 211.438354 78.104996 166.666687 133.333328 166.666687 L 666.666687 166.666687 Z M 666.666687 233.333313 C 685.07666 233.333313 700 248.257324 700 266.666687 L 700 533.333374 C 700 551.743286 685.07666 566.666687 666.666687 566.666687 L 133.333328 566.666687 C 114.924004 566.666687 100 551.743286 100 533.333374 L 100 266.666687 C 100 248.257324 114.924004 233.333313 133.333328 233.333313 L 666.666687 233.333313 Z"/>
</svg>
