<?xml version="1.0" encoding="UTF-8"?>
<!-- Generated by Pixelmator Pro 3.7.1 -->
<svg width="800" height="800" viewBox="0 0 800 800" xmlns="http://www.w3.org/2000/svg">
    <path id="Path" fill="none" stroke="#8ebab7" stroke-width="66.666664" stroke-linecap="round" stroke-linejoin="round" d="M 166.666672 366.666656 L 633.333313 366.666656 M 300 600 L 200 700 M 500 600 L 600 700 M 400 366.666656 L 400 133.333313 M 266.666656 500 L 267 500 M 533.333313 500 L 533.666687 500 M 273.333313 600 L 526.666687 600 C 564.003296 600 582.67334 600 596.93335 592.733337 C 609.476685 586.343323 619.676636 576.143311 626.06665 563.600037 C 633.333313 549.339966 633.333313 530.670044 633.333313 493.333344 L 633.333313 206.666687 C 633.333313 169.330017 633.333313 150.661316 626.06665 136.400696 C 619.676636 123.856323 609.476685 113.657654 596.93335 107.266357 C 582.67334 100 564.003296 100 526.666687 100 L 273.333313 100 C 235.996658 100 217.327988 100 203.067337 107.266357 C 190.52301 113.657654 180.324326 123.856323 173.932999 136.400696 C 166.666672 150.661316 166.666672 169.329651 166.666672 206.666687 L 166.666672 493.333344 C 166.666672 530.670044 166.666672 549.339966 173.932999 563.600037 C 180.324326 576.143311 190.52301 586.343323 203.067337 592.733337 C 217.327988 600 235.996323 600 273.333313 600 Z"/>
</svg>
